<svg width="515" height="79" viewBox="0 0 515 79" fill="none" xmlns="http://www.w3.org/2000/svg">
<line x1="3" y1="12.5" x2="508" y2="12.5" stroke="black"/>
<line x1="3.5" y1="2" x2="3.5" y2="23" stroke="black"/>
<line x1="54.5" y1="7" x2="54.5" y2="18" stroke="black"/>
<line x1="104.5" y1="7" x2="104.5" y2="18" stroke="black"/>
<line x1="155.5" x2="155.5" y2="24" stroke="black"/>
<line x1="205.5" y1="7" x2="205.5" y2="18" stroke="black"/>
<line x1="255.5" y1="7" x2="255.5" y2="18" stroke="black"/>
<line x1="306.5" y1="7" x2="306.5" y2="18" stroke="black"/>
<line x1="356.5" y1="2" x2="356.5" y2="23" stroke="black"/>
<line x1="407.5" y1="7" x2="407.5" y2="18" stroke="black"/>
<line x1="457.5" y1="7" x2="457.5" y2="18" stroke="black"/>
<line x1="508.5" y1="2" x2="508.5" y2="23" stroke="black"/>
<path d="M65.5469 75H64.416L60.1211 68.4258V75H58.9902V66.4688H60.1211L64.4277 73.0723V66.4688H65.5469V75ZM74.1074 71.0098C74.1074 71.8457 73.9668 72.5762 73.6855 73.2012C73.4043 73.8223 73.0059 74.2969 72.4902 74.625C71.9746 74.9531 71.373 75.1172 70.6855 75.1172C70.0137 75.1172 69.418 74.9531 68.8984 74.625C68.3789 74.293 67.9746 73.8223 67.6855 73.2129C67.4004 72.5996 67.2539 71.8906 67.2461 71.0859V70.4707C67.2461 69.6504 67.3887 68.9258 67.6738 68.2969C67.959 67.668 68.3613 67.1875 68.8809 66.8555C69.4043 66.5195 70.002 66.3516 70.6738 66.3516C71.3574 66.3516 71.959 66.5176 72.4785 66.8496C73.002 67.1777 73.4043 67.6562 73.6855 68.2852C73.9668 68.9102 74.1074 69.6387 74.1074 70.4707V71.0098ZM72.9883 70.459C72.9883 69.4473 72.7852 68.6719 72.3789 68.1328C71.9727 67.5898 71.4043 67.3184 70.6738 67.3184C69.9629 67.3184 69.4023 67.5898 68.9922 68.1328C68.5859 68.6719 68.377 69.4219 68.3652 70.3828V71.0098C68.3652 71.9902 68.5703 72.7617 68.9805 73.3242C69.3945 73.8828 69.9629 74.1621 70.6855 74.1621C71.4121 74.1621 71.9746 73.8984 72.373 73.3711C72.7715 72.8398 72.9766 72.0801 72.9883 71.0918V70.459ZM78.4902 73.5059L80.9277 66.4688H82.1582L78.9941 75H77.998L74.8398 66.4688H76.0645L78.4902 73.5059ZM84.5137 75H83.3887V66.4688H84.5137V75ZM92.8516 72.293C92.7461 73.1953 92.4121 73.8926 91.8496 74.3848C91.291 74.873 90.5469 75.1172 89.6172 75.1172C88.6094 75.1172 87.8008 74.7559 87.1914 74.0332C86.5859 73.3105 86.2832 72.3438 86.2832 71.1328V70.3125C86.2832 69.5195 86.4238 68.8223 86.7051 68.2207C86.9902 67.6191 87.3926 67.1582 87.9121 66.8379C88.4316 66.5137 89.0332 66.3516 89.7168 66.3516C90.623 66.3516 91.3496 66.6055 91.8965 67.1133C92.4434 67.6172 92.7617 68.3164 92.8516 69.2109H91.7207C91.623 68.5312 91.4102 68.0391 91.082 67.7344C90.7578 67.4297 90.3027 67.2773 89.7168 67.2773C88.998 67.2773 88.4336 67.543 88.0234 68.0742C87.6172 68.6055 87.4141 69.3613 87.4141 70.3418V71.168C87.4141 72.0938 87.6074 72.8301 87.9941 73.377C88.3809 73.9238 88.9219 74.1973 89.6172 74.1973C90.2422 74.1973 90.7207 74.0566 91.0527 73.7754C91.3887 73.4902 91.6113 72.9961 91.7207 72.293H92.8516ZM99.2148 71.0566H95.5176V74.0801H99.8125V75H94.3926V66.4688H99.7539V67.3945H95.5176V70.1367H99.2148V71.0566Z" fill="black"/>
<path d="M216.197 75H215.072V66.4688H216.197V75ZM224.816 75H223.686L219.391 68.4258V75H218.26V66.4688H219.391L223.697 73.0723V66.4688H224.816V75ZM232.533 67.3945H229.791V75H228.672V67.3945H225.936V66.4688H232.533V67.3945ZM238.621 71.0566H234.924V74.0801H239.219V75H233.799V66.4688H239.16V67.3945H234.924V70.1367H238.621V71.0566ZM243.748 71.5488H241.744V75H240.613V66.4688H243.438C244.398 66.4688 245.137 66.6875 245.652 67.125C246.172 67.5625 246.432 68.1992 246.432 69.0352C246.432 69.5664 246.287 70.0293 245.998 70.4238C245.713 70.8184 245.314 71.1133 244.803 71.3086L246.807 74.9297V75H245.6L243.748 71.5488ZM241.744 70.6289H243.473C244.031 70.6289 244.475 70.4844 244.803 70.1953C245.135 69.9062 245.301 69.5195 245.301 69.0352C245.301 68.5078 245.143 68.1035 244.826 67.8223C244.514 67.541 244.061 67.3984 243.467 67.3945H241.744V70.6289ZM249.467 66.4688L252.256 73.4297L255.045 66.4688H256.504V75H255.379V71.6777L255.484 68.0918L252.684 75H251.822L249.027 68.1094L249.139 71.6777V75H248.014V66.4688H249.467ZM263.312 71.0566H259.615V74.0801H263.91V75H258.49V66.4688H263.852V67.3945H259.615V70.1367H263.312V71.0566ZM265.311 75V66.4688H267.719C268.461 66.4688 269.117 66.6328 269.688 66.9609C270.258 67.2891 270.697 67.7559 271.006 68.3613C271.318 68.9668 271.477 69.6621 271.48 70.4473V70.9922C271.48 71.7969 271.324 72.502 271.012 73.1074C270.703 73.7129 270.26 74.1777 269.682 74.502C269.107 74.8262 268.438 74.9922 267.672 75H265.311ZM266.436 67.3945V74.0801H267.619C268.486 74.0801 269.16 73.8105 269.641 73.2715C270.125 72.7324 270.367 71.9648 270.367 70.9688V70.4707C270.367 69.502 270.139 68.75 269.682 68.2148C269.229 67.6758 268.584 67.4023 267.748 67.3945H266.436ZM274.393 75H273.268V66.4688H274.393V75ZM281.271 72.7734H277.697L276.895 75H275.734L278.992 66.4688H279.977L283.24 75H282.086L281.271 72.7734ZM278.037 71.8477H280.938L279.484 67.8574L278.037 71.8477ZM289.521 67.3945H286.779V75H285.66V67.3945H282.924V66.4688H289.521V67.3945ZM295.609 71.0566H291.912V74.0801H296.207V75H290.787V66.4688H296.148V67.3945H291.912V70.1367H295.609V71.0566Z" fill="black"/>
<path d="M407.701 72.7734H404.127L403.324 75H402.164L405.422 66.4688H406.406L409.67 75H408.516L407.701 72.7734ZM404.467 71.8477H407.367L405.914 67.8574L404.467 71.8477ZM410.818 75V66.4688H413.227C413.969 66.4688 414.625 66.6328 415.195 66.9609C415.766 67.2891 416.205 67.7559 416.514 68.3613C416.826 68.9668 416.984 69.6621 416.988 70.4473V70.9922C416.988 71.7969 416.832 72.502 416.52 73.1074C416.211 73.7129 415.768 74.1777 415.189 74.502C414.615 74.8262 413.945 74.9922 413.18 75H410.818ZM411.943 67.3945V74.0801H413.127C413.994 74.0801 414.668 73.8105 415.148 73.2715C415.633 72.7324 415.875 71.9648 415.875 70.9688V70.4707C415.875 69.502 415.646 68.75 415.189 68.2148C414.736 67.6758 414.092 67.4023 413.256 67.3945H411.943ZM421.389 73.5059L423.826 66.4688H425.057L421.893 75H420.896L417.738 66.4688H418.963L421.389 73.5059ZM430.471 72.7734H426.896L426.094 75H424.934L428.191 66.4688H429.176L432.439 75H431.285L430.471 72.7734ZM427.236 71.8477H430.137L428.684 67.8574L427.236 71.8477ZM440.145 75H439.014L434.719 68.4258V75H433.588V66.4688H434.719L439.025 73.0723V66.4688H440.145V75ZM448.418 72.293C448.312 73.1953 447.979 73.8926 447.416 74.3848C446.857 74.873 446.113 75.1172 445.184 75.1172C444.176 75.1172 443.367 74.7559 442.758 74.0332C442.152 73.3105 441.85 72.3438 441.85 71.1328V70.3125C441.85 69.5195 441.99 68.8223 442.271 68.2207C442.557 67.6191 442.959 67.1582 443.479 66.8379C443.998 66.5137 444.6 66.3516 445.283 66.3516C446.189 66.3516 446.916 66.6055 447.463 67.1133C448.01 67.6172 448.328 68.3164 448.418 69.2109H447.287C447.189 68.5312 446.977 68.0391 446.648 67.7344C446.324 67.4297 445.869 67.2773 445.283 67.2773C444.564 67.2773 444 67.543 443.59 68.0742C443.184 68.6055 442.98 69.3613 442.98 70.3418V71.168C442.98 72.0938 443.174 72.8301 443.561 73.377C443.947 73.9238 444.488 74.1973 445.184 74.1973C445.809 74.1973 446.287 74.0566 446.619 73.7754C446.955 73.4902 447.178 72.9961 447.287 72.293H448.418ZM454.781 71.0566H451.084V74.0801H455.379V75H449.959V66.4688H455.32V67.3945H451.084V70.1367H454.781V71.0566ZM456.779 75V66.4688H459.188C459.93 66.4688 460.586 66.6328 461.156 66.9609C461.727 67.2891 462.166 67.7559 462.475 68.3613C462.787 68.9668 462.945 69.6621 462.949 70.4473V70.9922C462.949 71.7969 462.793 72.502 462.48 73.1074C462.172 73.7129 461.729 74.1777 461.15 74.502C460.576 74.8262 459.906 74.9922 459.141 75H456.779ZM457.904 67.3945V74.0801H459.088C459.955 74.0801 460.629 73.8105 461.109 73.2715C461.594 72.7324 461.836 71.9648 461.836 70.9688V70.4707C461.836 69.502 461.607 68.75 461.15 68.2148C460.697 67.6758 460.053 67.4023 459.217 67.3945H457.904Z" fill="black"/>
<path d="M6.05859 36.3613C6.05859 37.6309 5.8418 38.5742 5.4082 39.1914C4.97461 39.8086 4.29688 40.1172 3.375 40.1172C2.46484 40.1172 1.79102 39.8164 1.35352 39.2148C0.916016 38.6094 0.689453 37.707 0.673828 36.5078V35.0605C0.673828 33.8066 0.890625 32.875 1.32422 32.2656C1.75781 31.6562 2.4375 31.3516 3.36328 31.3516C4.28125 31.3516 4.95703 31.6465 5.39062 32.2363C5.82422 32.8223 6.04688 33.7285 6.05859 34.9551V36.3613ZM4.97461 34.8789C4.97461 33.9609 4.8457 33.293 4.58789 32.875C4.33008 32.4531 3.92188 32.2422 3.36328 32.2422C2.80859 32.2422 2.4043 32.4512 2.15039 32.8691C1.89648 33.2871 1.76562 33.9297 1.75781 34.7969V36.5312C1.75781 37.4531 1.89062 38.1348 2.15625 38.5762C2.42578 39.0137 2.83203 39.2324 3.375 39.2324C3.91016 39.2324 4.30664 39.0254 4.56445 38.6113C4.82617 38.1973 4.96289 37.5449 4.97461 36.6543V34.8789Z" fill="black"/>
<path d="M55.2715 40H54.1816V32.7754L51.9961 33.5781V32.5938L55.1016 31.4277H55.2715V40Z" fill="black"/>
<path d="M107.299 40H101.709V39.2207L104.662 35.9395C105.1 35.4434 105.4 35.041 105.564 34.7324C105.732 34.4199 105.816 34.0977 105.816 33.7656C105.816 33.3203 105.682 32.9551 105.412 32.6699C105.143 32.3848 104.783 32.2422 104.334 32.2422C103.795 32.2422 103.375 32.3965 103.074 32.7051C102.777 33.0098 102.629 33.4355 102.629 33.9824H101.545C101.545 33.1973 101.797 32.5625 102.301 32.0781C102.809 31.5938 103.486 31.3516 104.334 31.3516C105.127 31.3516 105.754 31.5605 106.215 31.9785C106.676 32.3926 106.906 32.9453 106.906 33.6367C106.906 34.4766 106.371 35.4766 105.301 36.6367L103.016 39.1152H107.299V40Z" fill="black"/>
<path d="M154.285 35.207H155.1C155.611 35.1992 156.014 35.0645 156.307 34.8027C156.6 34.541 156.746 34.1875 156.746 33.7422C156.746 32.7422 156.248 32.2422 155.252 32.2422C154.783 32.2422 154.408 32.377 154.127 32.6465C153.85 32.9121 153.711 33.2656 153.711 33.707H152.627C152.627 33.0312 152.873 32.4707 153.365 32.0254C153.861 31.5762 154.49 31.3516 155.252 31.3516C156.057 31.3516 156.688 31.5645 157.145 31.9902C157.602 32.416 157.83 33.0078 157.83 33.7656C157.83 34.1367 157.709 34.4961 157.467 34.8438C157.229 35.1914 156.902 35.4512 156.488 35.623C156.957 35.7715 157.318 36.0176 157.572 36.3613C157.83 36.7051 157.959 37.125 157.959 37.6211C157.959 38.3867 157.709 38.9941 157.209 39.4434C156.709 39.8926 156.059 40.1172 155.258 40.1172C154.457 40.1172 153.805 39.9004 153.301 39.4668C152.801 39.0332 152.551 38.4609 152.551 37.75H153.641C153.641 38.1992 153.787 38.5586 154.08 38.8281C154.373 39.0977 154.766 39.2324 155.258 39.2324C155.781 39.2324 156.182 39.0957 156.459 38.8223C156.736 38.5488 156.875 38.1562 156.875 37.6445C156.875 37.1484 156.723 36.7676 156.418 36.502C156.113 36.2363 155.674 36.0996 155.1 36.0918H154.285V35.207Z" fill="black"/>
<path d="M207.285 37.1348H208.469V38.0195H207.285V40H206.195V38.0195H202.311V37.3809L206.131 31.4688H207.285V37.1348ZM203.541 37.1348H206.195V32.9512L206.066 33.1855L203.541 37.1348Z" fill="black"/>
<path d="M253.207 35.7227L253.641 31.4688H258.012V32.4707H254.561L254.303 34.7969C254.721 34.5508 255.195 34.4277 255.727 34.4277C256.504 34.4277 257.121 34.6855 257.578 35.2012C258.035 35.7129 258.264 36.4062 258.264 37.2812C258.264 38.1602 258.025 38.8535 257.549 39.3613C257.076 39.8652 256.414 40.1172 255.562 40.1172C254.809 40.1172 254.193 39.9082 253.717 39.4902C253.24 39.0723 252.969 38.4941 252.902 37.7559H253.928C253.994 38.2441 254.168 38.6133 254.449 38.8633C254.73 39.1094 255.102 39.2324 255.562 39.2324C256.066 39.2324 256.461 39.0605 256.746 38.7168C257.035 38.373 257.18 37.8984 257.18 37.293C257.18 36.7227 257.023 36.2656 256.711 35.9219C256.402 35.5742 255.99 35.4004 255.475 35.4004C255.002 35.4004 254.631 35.5039 254.361 35.7109L254.074 35.9453L253.207 35.7227Z" fill="black"/>
<path d="M307.963 31.4629V32.3828H307.764C306.92 32.3984 306.248 32.6484 305.748 33.1328C305.248 33.6172 304.959 34.2988 304.881 35.1777C305.33 34.6621 305.943 34.4043 306.721 34.4043C307.463 34.4043 308.055 34.666 308.496 35.1895C308.941 35.7129 309.164 36.3887 309.164 37.2168C309.164 38.0957 308.924 38.7988 308.443 39.3262C307.967 39.8535 307.326 40.1172 306.521 40.1172C305.705 40.1172 305.043 39.8047 304.535 39.1797C304.027 38.5508 303.773 37.7422 303.773 36.7539V36.3379C303.773 34.7676 304.107 33.5684 304.775 32.7402C305.447 31.9082 306.445 31.4824 307.77 31.4629H307.963ZM306.539 35.3066C306.168 35.3066 305.826 35.418 305.514 35.6406C305.201 35.8633 304.984 36.1426 304.863 36.4785V36.877C304.863 37.5801 305.021 38.1465 305.338 38.5762C305.654 39.0059 306.049 39.2207 306.521 39.2207C307.01 39.2207 307.393 39.041 307.67 38.6816C307.951 38.3223 308.092 37.8516 308.092 37.2695C308.092 36.6836 307.949 36.2109 307.664 35.8516C307.383 35.4883 307.008 35.3066 306.539 35.3066Z" fill="black"/>
<path d="M358.217 32.0781L354.684 40H353.547L357.068 32.3594H352.451V31.4688H358.217V32.0781Z" fill="black"/>
<path d="M409.883 33.6953C409.883 34.1211 409.77 34.5 409.543 34.832C409.32 35.1641 409.018 35.4238 408.635 35.6113C409.08 35.8027 409.432 36.082 409.689 36.4492C409.951 36.8164 410.082 37.2324 410.082 37.6973C410.082 38.4355 409.832 39.0234 409.332 39.4609C408.836 39.8984 408.182 40.1172 407.369 40.1172C406.549 40.1172 405.891 39.8984 405.395 39.4609C404.902 39.0195 404.656 38.4316 404.656 37.6973C404.656 37.2363 404.781 36.8203 405.031 36.4492C405.285 36.0781 405.635 35.7969 406.08 35.6055C405.701 35.418 405.402 35.1582 405.184 34.8262C404.965 34.4941 404.855 34.1172 404.855 33.6953C404.855 32.9766 405.086 32.4062 405.547 31.9844C406.008 31.5625 406.615 31.3516 407.369 31.3516C408.119 31.3516 408.725 31.5625 409.186 31.9844C409.65 32.4062 409.883 32.9766 409.883 33.6953ZM408.998 37.6738C408.998 37.1973 408.846 36.8086 408.541 36.5078C408.24 36.207 407.846 36.0566 407.357 36.0566C406.869 36.0566 406.477 36.2051 406.18 36.502C405.887 36.7988 405.74 37.1895 405.74 37.6738C405.74 38.1582 405.883 38.5391 406.168 38.8164C406.457 39.0938 406.857 39.2324 407.369 39.2324C407.877 39.2324 408.275 39.0938 408.564 38.8164C408.854 38.5352 408.998 38.1543 408.998 37.6738ZM407.369 32.2422C406.943 32.2422 406.598 32.375 406.332 32.6406C406.07 32.9023 405.939 33.2598 405.939 33.7129C405.939 34.1465 406.068 34.498 406.326 34.7676C406.588 35.0332 406.936 35.166 407.369 35.166C407.803 35.166 408.148 35.0332 408.406 34.7676C408.668 34.498 408.799 34.1465 408.799 33.7129C408.799 33.2793 408.664 32.9258 408.395 32.6523C408.125 32.3789 407.783 32.2422 407.369 32.2422Z" fill="black"/>
<path d="M458.863 36.25C458.637 36.5195 458.365 36.7363 458.049 36.9004C457.736 37.0645 457.393 37.1465 457.018 37.1465C456.525 37.1465 456.096 37.0254 455.729 36.7832C455.365 36.541 455.084 36.2012 454.885 35.7637C454.686 35.3223 454.586 34.8359 454.586 34.3047C454.586 33.7344 454.693 33.2207 454.908 32.7637C455.127 32.3066 455.436 31.957 455.834 31.7148C456.232 31.4727 456.697 31.3516 457.229 31.3516C458.072 31.3516 458.736 31.668 459.221 32.3008C459.709 32.9297 459.953 33.7891 459.953 34.8789V35.1953C459.953 36.8555 459.625 38.0684 458.969 38.834C458.312 39.5957 457.322 39.9863 455.998 40.0059H455.787V39.0918H456.016C456.91 39.0762 457.598 38.8438 458.078 38.3945C458.559 37.9414 458.82 37.2266 458.863 36.25ZM457.193 36.25C457.557 36.25 457.891 36.1387 458.195 35.916C458.504 35.6934 458.729 35.418 458.869 35.0898V34.6562C458.869 33.9453 458.715 33.3672 458.406 32.9219C458.098 32.4766 457.707 32.2539 457.234 32.2539C456.758 32.2539 456.375 32.4375 456.086 32.8047C455.797 33.168 455.652 33.6484 455.652 34.2461C455.652 34.8281 455.791 35.3086 456.068 35.6875C456.35 36.0625 456.725 36.25 457.193 36.25Z" fill="black"/>
<path d="M505.271 40H504.182V32.7754L501.996 33.5781V32.5938L505.102 31.4277H505.271V40ZM513.797 36.3613C513.797 37.6309 513.58 38.5742 513.146 39.1914C512.713 39.8086 512.035 40.1172 511.113 40.1172C510.203 40.1172 509.529 39.8164 509.092 39.2148C508.654 38.6094 508.428 37.707 508.412 36.5078V35.0605C508.412 33.8066 508.629 32.875 509.062 32.2656C509.496 31.6562 510.176 31.3516 511.102 31.3516C512.02 31.3516 512.695 31.6465 513.129 32.2363C513.562 32.8223 513.785 33.7285 513.797 34.9551V36.3613ZM512.713 34.8789C512.713 33.9609 512.584 33.293 512.326 32.875C512.068 32.4531 511.66 32.2422 511.102 32.2422C510.547 32.2422 510.143 32.4512 509.889 32.8691C509.635 33.2871 509.504 33.9297 509.496 34.7969V36.5312C509.496 37.4531 509.629 38.1348 509.895 38.5762C510.164 39.0137 510.57 39.2324 511.113 39.2324C511.648 39.2324 512.045 39.0254 512.303 38.6113C512.564 38.1973 512.701 37.5449 512.713 36.6543V34.8789Z" fill="black"/>
<line x1="3" y1="51.5" x2="507.999" y2="51.5" stroke="url(#paint0_linear)" stroke-width="3"/>
<defs>
<linearGradient id="paint0_linear" x1="517.967" y1="54.0004" x2="-15.273" y2="54.0004" gradientUnits="userSpaceOnUse">
<stop stop-color="#00D830"/>
<stop offset="0.474396" stop-color="#FFF500"/>
<stop offset="1" stop-color="#FD0000"/>
</linearGradient>
</defs>
</svg>
